<svg xmlns="http://www.w3.org/2000/svg" xmlns:xlink="http://www.w3.org/1999/xlink" width="40" zoomAndPan="magnify" viewBox="0 0 30 30.000001" height="40" preserveAspectRatio="xMidYMid meet" version="1.0"><defs><clipPath id="6a9704387f"><path d="M 5.636719 5.152344 L 24.507812 5.152344 L 24.507812 24.023438 L 5.636719 24.023438 Z M 5.636719 5.152344 " clip-rule="nonzero"/></clipPath></defs><path fill="#0071bc" d="M 20.691406 9.425781 C 19.617188 8.253906 18.167969 7.414062 16.542969 7.097656 L 16.542969 7.917969 L 17.972656 8.527344 C 18.035156 8.554688 18.089844 8.605469 18.105469 8.675781 C 18.140625 8.800781 18.070312 8.914062 17.957031 8.949219 L 17.59375 9.046875 Z M 16.199219 22.132812 C 19.878906 21.597656 22.707031 18.417969 22.707031 14.59375 C 22.707031 12.828125 22.105469 11.203125 21.097656 9.902344 C 21.089844 9.914062 21.089844 9.914062 21.082031 9.914062 L 16.542969 10.609375 L 16.542969 13.808594 L 18.351562 14.320312 C 18.421875 14.347656 18.484375 14.40625 18.503906 14.488281 C 18.53125 14.609375 18.449219 14.726562 18.335938 14.753906 L 16.410156 15.167969 L 16.410156 17.640625 L 18.292969 18.144531 C 18.363281 18.167969 18.421875 18.222656 18.449219 18.300781 C 18.476562 18.425781 18.40625 18.539062 18.292969 18.574219 L 17.019531 18.910156 L 19.414062 19.554688 C 19.492188 19.574219 19.5625 19.644531 19.582031 19.730469 C 19.597656 19.855469 19.519531 19.972656 19.394531 19.988281 L 16.199219 20.519531 Z M 14.078125 18.574219 C 13.894531 18.382812 13.265625 18.40625 13.027344 18.425781 C 12.84375 18.425781 12.515625 18.488281 12.347656 18.566406 C 12.101562 18.679688 12.09375 18.8125 12.023438 19.042969 C 11.996094 19.113281 11.949219 19.289062 11.941406 19.371094 C 11.90625 19.554688 11.835938 19.890625 11.828125 20.058594 C 11.820312 20.183594 11.820312 20.253906 11.746094 20.367188 C 11.582031 20.367188 11.113281 19.972656 10.980469 19.839844 C 10.828125 19.695312 10.785156 19.566406 10.839844 19.363281 C 10.960938 18.824219 11.296875 18.574219 11.554688 18.132812 C 11.730469 17.824219 11.78125 17.480469 11.640625 17.144531 C 11.519531 16.855469 11.21875 16.589844 10.890625 16.589844 C 10.265625 16.570312 10.167969 16.722656 9.761719 16.773438 C 9.621094 16.792969 9.328125 16.863281 9.195312 16.855469 C 8.789062 16.820312 8.613281 16.617188 8.488281 16.269531 C 8.453125 16.164062 8.347656 15.839844 8.417969 15.769531 C 8.515625 15.742188 8.976562 15.839844 9.082031 15.875 C 9.25 15.925781 9.558594 15.996094 9.734375 15.996094 C 9.929688 16.007812 11.050781 16.042969 11.148438 15.882812 C 11.175781 15.742188 11.101562 15.671875 10.960938 15.652344 C 10.671875 15.589844 10.503906 15.546875 10.203125 15.609375 C 9.761719 15.695312 9.503906 15.617188 9.074219 15.476562 C 8.976562 15.441406 8.824219 15.414062 8.71875 15.378906 C 8.605469 15.34375 8.417969 15.414062 8.347656 15.316406 C 8.332031 15.203125 8.367188 15.070312 8.382812 14.957031 C 8.402344 14.824219 8.367188 14.671875 8.390625 14.539062 C 8.472656 14.496094 8.984375 14.566406 9.074219 14.59375 C 9.277344 14.671875 10.601562 14.894531 10.695312 14.894531 C 11.136719 14.902344 11.121094 14.496094 10.695312 14.46875 C 10.238281 14.433594 9.882812 14.425781 9.363281 14.285156 C 9.203125 14.25 8.753906 14.167969 8.667969 14.132812 C 8.277344 13.976562 8.3125 14.285156 8.402344 13.472656 C 8.410156 13.367188 8.445312 13.3125 8.453125 13.207031 C 8.488281 12.808594 8.605469 12.984375 8.824219 13.039062 C 8.957031 13.066406 8.984375 13.101562 9.144531 13.09375 C 9.3125 13.074219 9.671875 12.960938 9.796875 13.019531 C 10.070312 13.136719 9.742188 13.339844 10.28125 13.65625 C 10.679688 13.886719 11.136719 13.578125 11.339844 13.25 C 11.5 13.003906 11.589844 12.527344 11.429688 12.269531 C 11.261719 12.015625 10.847656 11.988281 10.589844 11.839844 C 10.433594 11.75 10.328125 11.695312 10.160156 11.636719 C 9.972656 11.5625 9.847656 11.597656 9.691406 11.714844 C 9.734375 11.757812 9.832031 11.785156 9.894531 11.847656 C 10.070312 11.996094 10.210938 12.207031 10.46875 12.242188 C 10.917969 12.296875 11.289062 12.269531 11.085938 12.816406 C 11.015625 12.996094 10.972656 13.101562 10.855469 13.25 C 10.777344 13.339844 10.589844 13.535156 10.46875 13.425781 C 10.28125 13.269531 10.34375 12.6875 9.972656 12.632812 C 9.566406 12.570312 9.019531 12.890625 8.886719 12.6875 C 8.570312 12.207031 9.1875 11.28125 9.460938 10.875 C 9.550781 10.742188 9.644531 10.628906 9.742188 10.511719 C 9.8125 10.425781 9.957031 10.203125 10.070312 10.203125 C 10.113281 10.25 10.140625 10.417969 10.160156 10.488281 C 10.167969 10.566406 10.21875 10.65625 10.265625 10.726562 C 10.335938 10.875 10.53125 11.007812 10.695312 11.015625 C 10.769531 11.027344 10.933594 11.0625 10.996094 11.042969 C 11.066406 11.027344 11.03125 11.007812 11.136719 11.015625 C 11.359375 11.027344 11.695312 10.992188 11.863281 11.183594 C 11.976562 11.316406 12.039062 11.457031 12.171875 11.589844 C 12.285156 11.695312 12.515625 11.792969 12.675781 11.8125 C 12.824219 11.828125 13.179688 11.910156 13.320312 11.910156 C 13.53125 11.898438 13.796875 11.933594 13.796875 11.660156 C 13.53125 11.503906 13.019531 11.511719 12.675781 11.386719 C 12.382812 11.28125 12.269531 10.9375 11.914062 10.769531 C 11.582031 10.609375 10.898438 10.832031 10.671875 10.636719 C 10.53125 10.511719 10.511719 10.382812 10.476562 10.203125 C 10.441406 10.054688 10.511719 9.816406 10.589844 9.683594 C 10.828125 9.207031 11.652344 8.703125 12.136719 8.457031 C 12.84375 8.113281 13.566406 7.855469 14.371094 8.015625 C 14.839844 8.113281 14.890625 8.457031 14.898438 8.851562 C 14.945312 10.152344 13.957031 8.941406 13.257812 8.925781 C 12.703125 8.90625 12.71875 9.285156 12.445312 9.488281 C 12.367188 9.542969 12.058594 9.710938 12.03125 9.761719 C 11.949219 9.957031 12.464844 9.851562 12.542969 9.84375 C 12.886719 9.808594 12.929688 9.242188 13.453125 9.445312 C 13.496094 9.453125 13.699219 9.507812 13.742188 9.515625 L 14.828125 9.824219 C 14.9375 9.902344 14.910156 10.628906 14.890625 10.734375 C 14.722656 10.796875 14.660156 10.804688 14.46875 10.796875 C 14.363281 10.789062 14.113281 10.761719 14.027344 10.734375 C 13.71875 10.636719 13.621094 10.40625 13.417969 10.335938 C 13.160156 10.25 12.984375 10.390625 13.144531 10.609375 L 13.257812 10.742188 C 13.328125 10.824219 13.441406 10.917969 13.539062 10.972656 C 13.707031 11.050781 13.761719 11.042969 13.902344 11.085938 C 14.113281 11.167969 14.679688 11.070312 14.839844 11.175781 C 14.945312 11.246094 14.898438 11.457031 14.882812 11.574219 C 14.855469 11.695312 14.863281 11.890625 14.863281 12.03125 C 14.839844 12.332031 14.8125 12.535156 14.496094 12.652344 C 14.363281 12.703125 14.175781 12.710938 14.035156 12.703125 C 13.8125 12.695312 13.796875 12.667969 13.609375 12.640625 C 13.480469 12.613281 13.355469 12.5625 13.203125 12.535156 C 12.851562 12.492188 13.074219 12.5 12.761719 12.535156 C 12.507812 12.5625 12.339844 12.765625 12.1875 12.949219 C 12.128906 13.03125 12.03125 13.152344 11.984375 13.242188 C 11.933594 13.355469 11.820312 13.472656 11.984375 13.550781 C 12.269531 13.683594 12.410156 13.347656 12.523438 13.171875 C 12.613281 13.046875 12.621094 12.996094 12.789062 12.933594 C 13.132812 12.800781 13.488281 13.058594 13.824219 13.082031 C 14.195312 13.117188 14.34375 13.101562 14.679688 12.996094 C 14.742188 12.96875 14.792969 12.925781 14.855469 12.960938 C 15.007812 13.046875 15.4375 14.214844 14.457031 13.746094 C 14.34375 13.683594 14.167969 13.648438 14.007812 13.640625 C 13.894531 13.628906 13.796875 13.640625 13.707031 13.664062 C 13.195312 13.816406 12.992188 14.40625 12.1875 14.433594 C 12.171875 14.460938 12.1875 14.425781 12.179688 14.460938 L 12.199219 14.664062 C 12.207031 14.761719 12.347656 14.777344 12.445312 14.769531 C 12.605469 14.753906 12.859375 14.671875 12.976562 14.585938 C 13.292969 14.335938 13.539062 14.0625 13.9375 14.019531 C 14.253906 13.984375 14.476562 14.035156 14.636719 14.132812 C 15.042969 14.40625 14.925781 15.070312 14.898438 15.511719 C 14.890625 15.617188 14.882812 15.707031 14.863281 15.8125 C 14.855469 15.917969 14.910156 15.996094 14.757812 16.015625 L 13.839844 16.113281 C 13.734375 16.121094 13.644531 16.121094 13.574219 16.199219 C 13.417969 16.386719 13.671875 16.527344 13.859375 16.5 C 14.089844 16.464844 14.519531 16.316406 14.75 16.402344 C 14.863281 16.449219 14.855469 16.507812 14.855469 16.625 C 14.863281 16.722656 14.875 17.226562 14.847656 17.277344 C 14.769531 17.304688 14.46875 17.136719 14.140625 17.179688 C 14.078125 17.1875 14.007812 17.1875 13.9375 17.199219 C 13.824219 17.214844 13.644531 17.277344 13.390625 17.296875 C 13.203125 17.304688 13.238281 17.355469 13.027344 17.304688 C 12.886719 17.269531 12.851562 17.269531 12.71875 17.179688 C 12.648438 17.128906 12.445312 16.941406 12.402344 16.863281 C 12.269531 16.605469 12.214844 16.269531 12.367188 16.015625 C 12.632812 15.5625 13.335938 15.539062 13.523438 15.457031 C 13.628906 15.421875 13.734375 15.386719 13.777344 15.289062 C 13.824219 15.203125 13.769531 15.035156 13.691406 14.992188 C 13.585938 14.992188 12.871094 15.265625 12.746094 15.300781 C 12.691406 15.316406 12.648438 15.308594 12.59375 15.324219 C 12.207031 15.433594 11.996094 15.757812 11.898438 16.113281 C 11.878906 16.164062 11.878906 16.21875 11.871094 16.28125 C 11.863281 16.332031 11.835938 16.367188 11.835938 16.429688 C 11.808594 16.625 11.890625 16.976562 12.058594 17.117188 C 12.101562 17.164062 12.09375 17.179688 12.128906 17.226562 C 12.3125 17.472656 12.84375 17.675781 13.144531 17.691406 C 13.644531 17.71875 13.921875 17.453125 14.449219 17.59375 C 14.9375 17.726562 14.875 18.265625 14.875 18.644531 C 14.875 18.777344 14.882812 19.246094 14.863281 19.34375 C 14.839844 19.484375 14.519531 19.519531 14.371094 19.582031 C 14.246094 19.636719 14.078125 19.714844 13.957031 19.742188 C 13.824219 19.769531 13.691406 19.839844 13.496094 19.828125 C 13.300781 19.820312 13.25 19.847656 13.257812 19.890625 C 13.285156 19.960938 13.46875 20.050781 13.574219 20.078125 C 13.65625 20.101562 13.980469 20.09375 14.050781 20.066406 C 14.175781 20.023438 14.308594 19.988281 14.441406 19.945312 C 14.546875 19.898438 14.734375 19.828125 14.847656 19.855469 C 14.898438 19.980469 14.875 20.414062 14.847656 20.554688 C 14.792969 20.773438 14.636719 20.871094 14.421875 20.933594 C 14.28125 20.96875 13.832031 21.003906 13.683594 21.003906 C 13.453125 20.996094 13.167969 20.96875 12.949219 20.925781 C 12.746094 20.878906 12.515625 20.828125 12.355469 20.6875 C 12.046875 20.421875 12.1875 20.164062 12.226562 19.742188 C 12.25 19.46875 12.269531 19.027344 12.570312 18.894531 C 12.816406 18.777344 13.761719 18.867188 13.980469 18.796875 C 14.097656 18.761719 14.183594 18.671875 14.078125 18.574219 Z M 10.546875 18.9375 C 10.707031 18.433594 11.015625 18.257812 11.191406 18.011719 C 11.464844 17.628906 11.378906 16.96875 10.769531 16.96875 C 9.992188 16.96875 9.742188 17.277344 9.214844 17.285156 C 9.089844 17.285156 9.0625 17.410156 9.097656 17.507812 C 9.328125 18.117188 9.679688 18.679688 10.195312 19.085938 C 10.398438 19.195312 10.449219 19.246094 10.546875 18.9375 Z M 15.078125 22.222656 C 15.304688 22.222656 15.535156 22.214844 15.757812 22.1875 L 15.757812 20.332031 C 15.757812 20.21875 15.84375 20.121094 15.960938 20.113281 L 18.308594 19.714844 L 16.101562 19.125 C 15.976562 19.097656 15.90625 18.972656 15.941406 18.847656 C 16.023438 18.699219 15.996094 18.734375 16.164062 18.679688 L 17.371094 18.363281 L 16.136719 18.027344 C 16.03125 18 15.96875 17.914062 15.96875 17.816406 L 15.96875 14.980469 C 15.96875 14.875 16.046875 14.777344 16.15625 14.761719 L 17.371094 14.503906 L 16.261719 14.1875 C 16.164062 14.160156 16.09375 14.0625 16.09375 13.964844 L 16.09375 10.425781 C 16.09375 10.308594 16.191406 10.214844 16.304688 10.203125 L 19.429688 9.71875 L 16.402344 9.347656 C 16.285156 9.339844 16.199219 9.222656 16.207031 9.101562 C 16.226562 9.011719 16.296875 8.933594 16.382812 8.914062 L 17.222656 8.683594 L 16.234375 8.261719 C 16.144531 8.226562 16.09375 8.148438 16.09375 8.058594 L 16.09375 7.027344 C 15.757812 6.980469 15.421875 6.953125 15.078125 6.953125 C 10.855469 6.953125 7.4375 10.371094 7.4375 14.59375 C 7.4375 18.804688 10.855469 22.222656 15.078125 22.222656 " fill-opacity="1" fill-rule="evenodd"/><g clip-path="url(#6a9704387f)"><path fill="#0071bc" d="M 15.078125 6.011719 C 19.808594 6.011719 23.652344 9.851562 23.652344 14.59375 C 23.652344 19.328125 19.808594 23.167969 15.078125 23.167969 C 10.335938 23.167969 6.492188 19.328125 6.492188 14.59375 C 6.492188 9.851562 10.335938 6.011719 15.078125 6.011719 Z M 15.078125 5.152344 C 20.285156 5.152344 24.507812 9.375 24.507812 14.59375 C 24.507812 19.804688 20.285156 24.023438 15.078125 24.023438 C 9.859375 24.023438 5.636719 19.804688 5.636719 14.59375 C 5.636719 9.375 9.859375 5.152344 15.078125 5.152344 " fill-opacity="1" fill-rule="evenodd"/></g></svg>