{
  "accessors": [
    {
      "bufferView": 2,
      "componentType": 5126,
      "count": 58903,
      "max": [
        45.22637176513672,
        160.700439453125,
        22.034841537475586
      ],
      "min": [
        -45.22637176513672,
        1.8181707859039307,
        -9.754951477050781
      ],
      "type": "VEC3"
    },
    {
      "bufferView": 2,
      "byteOffset": 706836,
      "componentType": 5126,
      "count": 58903,
      "max": [
        0.9999654293060303,
        0.9999237060546875,
        0.9999902248382568
      ],
      "min": [
        -0.9999654293060303,
        -0.999987781047821,
        -1.0
      ],
      "type": "VEC3"
    },
    {
      "bufferView": 1,
      "componentType": 5126,
      "count": 58903,
      "max": [
        1.9904249906539917,
        0.9927030205726624
      ],
      "min": [
        0.002848000032827258,
        0.006260000169277191
      ],
      "type": "VEC2"
    },
    {
      "bufferView": 0,
      "componentType": 5125,
      "count": 336552,
      "type": "SCALAR"
    }
  ],
  "asset": {
    "extras": {
      "author": "robertramsay (https://sketchfab.com/robertramsay)",
      "license": "CC-BY-4.0 (http://creativecommons.org/licenses/by/4.0/)",
      "source": "https://sketchfab.com/3d-models/female-base-rev1-7f9d35c58bd2421598eeed0df9b19f37",
      "title": "Female Base Rev1"
    },
    "generator": "Sketchfab-14.2.0",
    "version": "2.0"
  },
  "bufferViews": [
    {
      "buffer": 0,
      "byteLength": 1346208,
      "name": "floatBufferViews",
      "target": 34963
    },
    {
      "buffer": 0,
      "byteLength": 471224,
      "byteOffset": 1346208,
      "byteStride": 8,
      "name": "floatBufferViews",
      "target": 34962
    },
    {
      "buffer": 0,
      "byteLength": 1413672,
      "byteOffset": 1817432,
      "byteStride": 12,
      "name": "floatBufferViews",
      "target": 34962
    }
  ],
  "buffers": [
    {
      "byteLength": 3231104,
      "uri": "scene.bin"
    }
  ],
  "materials": [
    {
      "doubleSided": true,
      "name": "PM3D_FemBod",
      "pbrMetallicRoughness": {
        "baseColorFactor": [
          0.5,
          0.5,
          0.5,
          1.0
        ],
        "metallicFactor": 0.0
      }
    }
  ],
  "meshes": [
    {
      "name": "PM3D_FemBod_PM3D_FemBod_0",
      "primitives": [
        {
          "attributes": {
            "NORMAL": 1,
            "POSITION": 0,
            "TEXCOORD_0": 2
          },
          "indices": 3,
          "material": 0,
          "mode": 4
        }
      ]
    }
  ],
  "nodes": [
    {
      "children": [
        1
      ],
      "matrix": [
        1.0,
        0.0,
        0.0,
        0.0,
        0.0,
        2.220446049250313e-16,
        -1.0,
        0.0,
        0.0,
        1.0,
        2.220446049250313e-16,
        0.0,
        0.0,
        0.0,
        0.0,
        1.0
      ],
      "name": "Sketchfab_model"
    },
    {
      "children": [
        2
      ],
      "matrix": [
        0.009999999776482582,
        0.0,
        0.0,
        0.0,
        0.0,
        0.0,
        0.009999999776482582,
        0.0,
        0.0,
        -0.009999999776482582,
        0.0,
        0.0,
        0.0,
        0.0,
        0.0,
        1.0
      ],
      "name": "3917885d88a44b97ac55510d547c611c.fbx"
    },
    {
      "children": [
        3
      ],
      "name": "RootNode"
    },
    {
      "children": [
        4
      ],
      "name": "PM3D_FemBod"
    },
    {
      "mesh": 0,
      "name": "PM3D_FemBod_PM3D_FemBod_0"
    }
  ],
  "scene": 0,
  "scenes": [
    {
      "name": "Sketchfab_Scene",
      "nodes": [
        0
      ]
    }
  ]
}
